<?xml version="1.0" encoding="iso-8859-1"?>
<!-- Uploaded to: SVG Repo, www.svgrepo.com, Generator: SVG Repo Mixer Tools -->
<svg height="800px" width="800px" version="1.1" id="Layer_1" xmlns="http://www.w3.org/2000/svg" xmlns:xlink="http://www.w3.org/1999/xlink" 
	 viewBox="0 0 512.009 512.009" xml:space="preserve">
<circle style="fill:#F7B239;" cx="256.004" cy="256.004" r="256.004"/>
<path style="fill:#E09B2D;" d="M121.499,390.501C29.407,298.407,22.15,153.608,99.723,53.204
	c-8.593,6.638-16.861,13.895-24.743,21.777c-99.974,99.974-99.974,262.065,0,362.038s262.065,99.974,362.038,0
	c7.881-7.881,15.138-16.15,21.777-24.743C358.392,489.85,213.593,482.593,121.499,390.501z"/>
<path style="fill:#4D4D4D;" d="M255.999,316.616c-43.047,0-86.094-16.386-118.865-49.158c-3.706-3.706-3.706-9.713,0-13.418
	c3.706-3.706,9.714-3.706,13.418,0c58.144,58.144,152.75,58.143,210.894,0c3.706-3.706,9.714-3.706,13.418,0
	c3.706,3.706,3.706,9.713,0,13.418C342.095,300.231,299.048,316.616,255.999,316.616z"/>
<path style="fill:#E09B2D;" d="M256.004,357.764c-15.3,0-30.6-2.085-45.475-6.255c-5.047-1.414-7.989-6.652-6.575-11.698
	c1.414-5.045,6.657-7.989,11.698-6.575c26.399,7.401,54.307,7.401,80.706,0c5.047-1.417,10.283,1.53,11.698,6.575
	c1.414,5.045-1.528,10.283-6.575,11.698C286.605,355.677,271.304,357.764,256.004,357.764z"/>
<g>
	<path style="fill:#4D4D4D;" d="M190.803,200.674c-5.24,0-9.489-4.248-9.489-9.489c0-25.466-20.718-46.186-46.186-46.186
		s-46.186,20.718-46.186,46.186c0,5.24-4.248,9.489-9.489,9.489c-5.24,0-9.489-4.248-9.489-9.489
		c0-35.93,29.231-65.163,65.163-65.163s65.163,29.231,65.163,65.163C200.292,196.426,196.044,200.674,190.803,200.674z"/>
	<path style="fill:#4D4D4D;" d="M432.546,200.674c-5.24,0-9.489-4.248-9.489-9.489c0-25.466-20.718-46.186-46.186-46.186
		s-46.186,20.718-46.186,46.186c0,5.24-4.248,9.489-9.489,9.489s-9.489-4.248-9.489-9.489c0-35.93,29.231-65.163,65.163-65.163
		s65.163,29.231,65.163,65.163C442.034,196.426,437.786,200.674,432.546,200.674z"/>
</g>
<g>
	<circle style="fill:#F95428;" cx="94.811" cy="243.315" r="25.013"/>
	<circle style="fill:#F95428;" cx="417.185" cy="243.315" r="25.013"/>
</g>
</svg>